<svg version="1.1" id="Layer_1" xmlns="http://www.w3.org/2000/svg" xmlns:xlink="http://www.w3.org/1999/xlink" x="0px" y="0px"
	 width="100%" viewBox="0 0 200 200" enable-background="new 0 0 200 200" xml:space="preserve">
<path fill="#000000" opacity="1.000000" stroke="none" 
	d="
M100.000000,201.000000 
	C66.687195,201.000000 33.874397,201.000000 1.030797,201.000000 
	C1.030797,134.395569 1.030797,67.791107 1.030797,1.093328 
	C67.562645,1.093328 134.125458,1.093328 200.844147,1.093328 
	C200.844147,67.666382 200.844147,134.333145 200.844147,201.000000 
	C167.458054,201.000000 133.979034,201.000000 100.000000,201.000000 
M101.609299,93.115120 
	C114.573540,80.209915 127.526779,67.293633 140.512421,54.409988 
	C142.779312,52.160896 144.108978,49.650013 141.513397,47.071262 
	C138.853806,44.428909 136.293015,45.442783 133.786545,47.957951 
	C105.267082,76.576431 76.702377,105.149956 48.083786,133.669281 
	C45.605782,136.138702 44.369247,138.654755 46.968170,141.387009 
	C49.737480,144.298386 52.300098,142.634048 54.646355,140.273376 
	C70.119591,124.705109 85.626564,109.170387 101.609299,93.115120 
M108.274002,133.774902 
	C104.837929,137.155930 101.113129,140.305267 98.116905,144.039215 
	C97.016380,145.410736 96.757858,149.334122 97.674393,150.024948 
	C99.193748,151.170166 101.996132,150.888229 104.214272,150.697876 
	C105.119049,150.620224 105.926537,149.229004 106.749588,148.406677 
	C115.100372,140.063446 123.445358,131.714432 131.791656,123.366707 
	C137.906158,117.251190 144.054184,111.168640 150.117081,105.002388 
	C152.420212,102.660004 152.913574,99.858452 150.273987,97.575256 
	C147.830917,95.462044 145.368683,96.463486 143.236710,98.613274 
	C131.764267,110.181740 120.264801,121.723404 108.274002,133.774902 
z"/>
<path fill="#F8F8F8" opacity="1.000000" stroke="none" 
	d="
M101.365921,93.369926 
	C85.626564,109.170387 70.119591,124.705109 54.646355,140.273376 
	C52.300098,142.634048 49.737480,144.298386 46.968170,141.387009 
	C44.369247,138.654755 45.605782,136.138702 48.083786,133.669281 
	C76.702377,105.149956 105.267082,76.576431 133.786545,47.957951 
	C136.293015,45.442783 138.853806,44.428909 141.513397,47.071262 
	C144.108978,49.650013 142.779312,52.160896 140.512421,54.409988 
	C127.526779,67.293633 114.573540,80.209915 101.365921,93.369926 
z"/>
<path fill="#F3F3F3" opacity="1.000000" stroke="none" 
	d="
M108.524330,133.524597 
	C120.264801,121.723404 131.764267,110.181740 143.236710,98.613274 
	C145.368683,96.463486 147.830917,95.462044 150.273987,97.575256 
	C152.913574,99.858452 152.420212,102.660004 150.117081,105.002388 
	C144.054184,111.168640 137.906158,117.251190 131.791656,123.366707 
	C123.445358,131.714432 115.100372,140.063446 106.749588,148.406677 
	C105.926537,149.229004 105.119049,150.620224 104.214272,150.697876 
	C101.996132,150.888229 99.193748,151.170166 97.674393,150.024948 
	C96.757858,149.334122 97.016380,145.410736 98.116905,144.039215 
	C101.113129,140.305267 104.837929,137.155930 108.524330,133.524597 
z"/>
</svg>