<svg id="visual" viewBox="0 0 1500 30" width="1500" height="30" xmlns="http://www.w3.org/2000/svg" xmlns:xlink="http://www.w3.org/1999/xlink" version="1.1"><path d="M0 19L41.7 17.3C83.3 15.7 166.7 12.3 250 11.2C333.3 10 416.7 11 500 14.2C583.3 17.3 666.7 22.7 750 22C833.3 21.3 916.7 14.7 1000 11.8C1083.3 9 1166.7 10 1250 11.7C1333.3 13.3 1416.7 15.7 1458.3 16.8L1500 18L1500 0L1458.3 0C1416.7 0 1333.3 0 1250 0C1166.7 0 1083.3 0 1000 0C916.7 0 833.3 0 750 0C666.7 0 583.3 0 500 0C416.7 0 333.3 0 250 0C166.7 0 83.3 0 41.7 0L0 0Z" fill="#2e7ff9"></path><path d="M0 4L41.7 5.5C83.3 7 166.7 10 250 9.5C333.3 9 416.7 5 500 3C583.3 1 666.7 1 750 1.8C833.3 2.7 916.7 4.3 1000 7.2C1083.3 10 1166.7 14 1250 14.3C1333.3 14.7 1416.7 11.3 1458.3 9.7L1500 8L1500 0L1458.3 0C1416.7 0 1333.3 0 1250 0C1166.7 0 1083.3 0 1000 0C916.7 0 833.3 0 750 0C666.7 0 583.3 0 500 0C416.7 0 333.3 0 250 0C166.7 0 83.3 0 41.7 0L0 0Z" fill="#0066ff"></path></svg>