<svg id="visual" viewBox="0 0 900 600" width="900" height="600" xmlns="http://www.w3.org/2000/svg" xmlns:xlink="http://www.w3.org/1999/xlink" version="1.1"><rect x="0" y="0" width="900" height="600" fill="#002233"></rect><path d="M0 112L18.8 158.8C37.7 205.7 75.3 299.3 112.8 326C150.3 352.7 187.7 312.3 225.2 296.5C262.7 280.7 300.3 289.3 337.8 297C375.3 304.7 412.7 311.3 450.2 324C487.7 336.7 525.3 355.3 562.8 348.5C600.3 341.7 637.7 309.3 675.2 305C712.7 300.7 750.3 324.3 787.8 347.7C825.3 371 862.7 394 881.3 405.5L900 417L900 0L881.3 0C862.7 0 825.3 0 787.8 0C750.3 0 712.7 0 675.2 0C637.7 0 600.3 0 562.8 0C525.3 0 487.7 0 450.2 0C412.7 0 375.3 0 337.8 0C300.3 0 262.7 0 225.2 0C187.7 0 150.3 0 112.8 0C75.3 0 37.7 0 18.8 0L0 0Z" fill="#0066FF" stroke-linecap="round" stroke-linejoin="miter"></path></svg>