<svg id="visual" viewBox="0 0 900 600" width="900" height="600" xmlns="http://www.w3.org/2000/svg" xmlns:xlink="http://www.w3.org/1999/xlink" version="1.1"><g stroke-width="1" stroke-linejoin="bevel"><path d="M457 297L478 337.9L496 315Z" fill="#004cbb" stroke="#004cbb"></path><path d="M457 297L444 343.9L478 337.9Z" fill="#6198ff" stroke="#6198ff"></path><path d="M505 374.7L522 340.9L478 337.9Z" fill="#0051c8" stroke="#0051c8"></path><path d="M478 337.9L522 340.9L496 315Z" fill="#0066ff" stroke="#0066ff"></path><path d="M498 231.3L477 248.1L496 315Z" fill="#004cbb" stroke="#004cbb"></path><path d="M496 315L477 248.1L457 297Z" fill="#0061f1" stroke="#0061f1"></path><path d="M439 246.1L410 290L457 297Z" fill="#4385ff" stroke="#4385ff"></path><path d="M457 297L410 290L444 343.9Z" fill="#4385ff" stroke="#4385ff"></path><path d="M423 385.7L453 379.7L444 343.9Z" fill="#0056d6" stroke="#0056d6"></path><path d="M444 343.9L453 379.7L478 337.9Z" fill="#0051c8" stroke="#0051c8"></path><path d="M453 379.7L505 374.7L478 337.9Z" fill="#337bff" stroke="#337bff"></path><path d="M477 248.1L439 246.1L457 297Z" fill="#0056d6" stroke="#0056d6"></path><path d="M577 340.9L549 312L522 340.9Z" fill="#0056d6" stroke="#0056d6"></path><path d="M522 340.9L549 312L496 315Z" fill="#337bff" stroke="#337bff"></path><path d="M505 374.7L536 368.7L522 340.9Z" fill="#0056d6" stroke="#0056d6"></path><path d="M389 349.9L423 385.7L444 343.9Z" fill="#004cbb" stroke="#004cbb"></path><path d="M453 379.7L488 425.6L505 374.7Z" fill="#0056d6" stroke="#0056d6"></path><path d="M558 245.1L498 231.3L496 315Z" fill="#0066ff" stroke="#0066ff"></path><path d="M477 248.1L459 204.3L439 246.1Z" fill="#005ce3" stroke="#005ce3"></path><path d="M410 290L389 349.9L444 343.9Z" fill="#0061f1" stroke="#0061f1"></path><path d="M459 204.3L413 246.1L439 246.1Z" fill="#0066ff" stroke="#0066ff"></path><path d="M439 246.1L413 246.1L410 290Z" fill="#0066ff" stroke="#0066ff"></path><path d="M410 290L377 303L389 349.9Z" fill="#2071ff" stroke="#2071ff"></path><path d="M413 246.1L377 303L410 290Z" fill="#538eff" stroke="#538eff"></path><path d="M536 368.7L577 340.9L522 340.9Z" fill="#6198ff" stroke="#6198ff"></path><path d="M549 312L558 245.1L496 315Z" fill="#337bff" stroke="#337bff"></path><path d="M387 411.6L433 417.6L423 385.7Z" fill="#0051c8" stroke="#0051c8"></path><path d="M423 385.7L433 417.6L453 379.7Z" fill="#005ce3" stroke="#005ce3"></path><path d="M505 374.7L524 430.6L536 368.7Z" fill="#538eff" stroke="#538eff"></path><path d="M595 290L558 245.1L549 312Z" fill="#6198ff" stroke="#6198ff"></path><path d="M466 183.4L459 204.3L498 231.3Z" fill="#0066ff" stroke="#0066ff"></path><path d="M498 231.3L459 204.3L477 248.1Z" fill="#0056d6" stroke="#0056d6"></path><path d="M433 417.6L488 425.6L453 379.7Z" fill="#004cbb" stroke="#004cbb"></path><path d="M536 368.7L593 366.7L577 340.9Z" fill="#0051c8" stroke="#0051c8"></path><path d="M377 303L361 349.9L389 349.9Z" fill="#005ce3" stroke="#005ce3"></path><path d="M389 349.9L387 411.6L423 385.7Z" fill="#0056d6" stroke="#0056d6"></path><path d="M459 204.3L391 224.3L413 246.1Z" fill="#2071ff" stroke="#2071ff"></path><path d="M413 246.1L342 272.1L377 303Z" fill="#0051c8" stroke="#0051c8"></path><path d="M377 303L312 304L361 349.9Z" fill="#005ce3" stroke="#005ce3"></path><path d="M558 245.1L529 205.3L498 231.3Z" fill="#538eff" stroke="#538eff"></path><path d="M577 340.9L595 290L549 312Z" fill="#0066ff" stroke="#0066ff"></path><path d="M558 245.1L583 210.3L529 205.3Z" fill="#4385ff" stroke="#4385ff"></path><path d="M595 290L576 242.1L558 245.1Z" fill="#6198ff" stroke="#6198ff"></path><path d="M488 425.6L524 430.6L505 374.7Z" fill="#538eff" stroke="#538eff"></path><path d="M348 386.7L387 411.6L389 349.9Z" fill="#6198ff" stroke="#6198ff"></path><path d="M443 488.4L495 465.4L488 425.6Z" fill="#0061f1" stroke="#0061f1"></path><path d="M488 425.6L495 465.4L524 430.6Z" fill="#0056d6" stroke="#0056d6"></path><path d="M524 430.6L593 366.7L536 368.7Z" fill="#6198ff" stroke="#6198ff"></path><path d="M637 354.9L638 291L595 290Z" fill="#0051c8" stroke="#0051c8"></path><path d="M529 205.3L466 183.4L498 231.3Z" fill="#6198ff" stroke="#6198ff"></path><path d="M459 204.3L388 188.4L391 224.3Z" fill="#6198ff" stroke="#6198ff"></path><path d="M391 224.3L342 272.1L413 246.1Z" fill="#0061f1" stroke="#0061f1"></path><path d="M327 375.7L348 386.7L361 349.9Z" fill="#0061f1" stroke="#0061f1"></path><path d="M361 349.9L348 386.7L389 349.9Z" fill="#0056d6" stroke="#0056d6"></path><path d="M391 224.3L353 222.3L342 272.1Z" fill="#337bff" stroke="#337bff"></path><path d="M388 188.4L353 222.3L391 224.3Z" fill="#538eff" stroke="#538eff"></path><path d="M466 183.4L388 188.4L459 204.3Z" fill="#005ce3" stroke="#005ce3"></path><path d="M443 488.4L488 425.6L433 417.6Z" fill="#0061f1" stroke="#0061f1"></path><path d="M612 441.6L618 368.7L593 366.7Z" fill="#004cbb" stroke="#004cbb"></path><path d="M576 242.1L583 210.3L558 245.1Z" fill="#0066ff" stroke="#0066ff"></path><path d="M529 205.3L486 158.4L466 183.4Z" fill="#0051c8" stroke="#0051c8"></path><path d="M648 220.3L583 210.3L576 242.1Z" fill="#538eff" stroke="#538eff"></path><path d="M598 446.6L593 366.7L524 430.6Z" fill="#2071ff" stroke="#2071ff"></path><path d="M593 366.7L618 368.7L577 340.9Z" fill="#6198ff" stroke="#6198ff"></path><path d="M595 290L640 271.1L576 242.1Z" fill="#538eff" stroke="#538eff"></path><path d="M538 162.4L486 158.4L529 205.3Z" fill="#004cbb" stroke="#004cbb"></path><path d="M376 143.6L377 173.4L388 188.4Z" fill="#0051c8" stroke="#0051c8"></path><path d="M300 347.9L327 375.7L361 349.9Z" fill="#004cbb" stroke="#004cbb"></path><path d="M348 386.7L355 440.6L387 411.6Z" fill="#0056d6" stroke="#0056d6"></path><path d="M313 252.1L312 304L342 272.1Z" fill="#0061f1" stroke="#0061f1"></path><path d="M342 272.1L312 304L377 303Z" fill="#538eff" stroke="#538eff"></path><path d="M583 210.3L538 162.4L529 205.3Z" fill="#2071ff" stroke="#2071ff"></path><path d="M637 354.9L595 290L577 340.9Z" fill="#538eff" stroke="#538eff"></path><path d="M690 401.7L637 354.9L618 368.7Z" fill="#2071ff" stroke="#2071ff"></path><path d="M618 368.7L637 354.9L577 340.9Z" fill="#538eff" stroke="#538eff"></path><path d="M452 127.6L388 188.4L466 183.4Z" fill="#0051c8" stroke="#0051c8"></path><path d="M388 188.4L377 173.4L353 222.3Z" fill="#337bff" stroke="#337bff"></path><path d="M353 222.3L313 252.1L342 272.1Z" fill="#0061f1" stroke="#0061f1"></path><path d="M324 198.3L313 252.1L353 222.3Z" fill="#538eff" stroke="#538eff"></path><path d="M312 429.6L355 440.6L348 386.7Z" fill="#538eff" stroke="#538eff"></path><path d="M390 476.4L443 488.4L433 417.6Z" fill="#004cbb" stroke="#004cbb"></path><path d="M657 275.1L640 271.1L638 291Z" fill="#2071ff" stroke="#2071ff"></path><path d="M638 291L640 271.1L595 290Z" fill="#0066ff" stroke="#0066ff"></path><path d="M279 324.9L300 347.9L312 304Z" fill="#004cbb" stroke="#004cbb"></path><path d="M312 304L300 347.9L361 349.9Z" fill="#6198ff" stroke="#6198ff"></path><path d="M312 429.6L353 459.4L355 440.6Z" fill="#0061f1" stroke="#0061f1"></path><path d="M390 476.4L433 417.6L387 411.6Z" fill="#4385ff" stroke="#4385ff"></path><path d="M476 504.3L522 484.4L495 465.4Z" fill="#6198ff" stroke="#6198ff"></path><path d="M495 465.4L522 484.4L524 430.6Z" fill="#005ce3" stroke="#005ce3"></path><path d="M355 440.6L390 476.4L387 411.6Z" fill="#004cbb" stroke="#004cbb"></path><path d="M522 484.4L598 446.6L524 430.6Z" fill="#6198ff" stroke="#6198ff"></path><path d="M620 180.4L585 167.4L583 210.3Z" fill="#0061f1" stroke="#0061f1"></path><path d="M583 210.3L585 167.4L538 162.4Z" fill="#538eff" stroke="#538eff"></path><path d="M312 429.6L348 386.7L327 375.7Z" fill="#4385ff" stroke="#4385ff"></path><path d="M355 440.6L353 459.4L390 476.4Z" fill="#004cbb" stroke="#004cbb"></path><path d="M288 270.1L287 285L312 304Z" fill="#4385ff" stroke="#4385ff"></path><path d="M480 117.6L452 127.6L486 158.4Z" fill="#0066ff" stroke="#0066ff"></path><path d="M486 158.4L452 127.6L466 183.4Z" fill="#0056d6" stroke="#0056d6"></path><path d="M480 117.6L486 158.4L538 162.4Z" fill="#004cbb" stroke="#004cbb"></path><path d="M603 478.4L612 441.6L598 446.6Z" fill="#0061f1" stroke="#0061f1"></path><path d="M598 446.6L612 441.6L593 366.7Z" fill="#0061f1" stroke="#0061f1"></path><path d="M377 173.4L324 198.3L353 222.3Z" fill="#0066ff" stroke="#0066ff"></path><path d="M313 252.1L288 270.1L312 304Z" fill="#0066ff" stroke="#0066ff"></path><path d="M318 152.4L324 198.3L377 173.4Z" fill="#005ce3" stroke="#005ce3"></path><path d="M664 312L657 275.1L638 291Z" fill="#005ce3" stroke="#005ce3"></path><path d="M640 271.1L648 220.3L576 242.1Z" fill="#0051c8" stroke="#0051c8"></path><path d="M435 519.3L476 504.3L443 488.4Z" fill="#0066ff" stroke="#0066ff"></path><path d="M443 488.4L476 504.3L495 465.4Z" fill="#4385ff" stroke="#4385ff"></path><path d="M285 210.3L288 270.1L313 252.1Z" fill="#2071ff" stroke="#2071ff"></path><path d="M637 354.9L664 312L638 291Z" fill="#538eff" stroke="#538eff"></path><path d="M692 344.9L664 312L637 354.9Z" fill="#004cbb" stroke="#004cbb"></path><path d="M287 285L279 324.9L312 304Z" fill="#0051c8" stroke="#0051c8"></path><path d="M280 395.7L312 429.6L327 375.7Z" fill="#4385ff" stroke="#4385ff"></path><path d="M224 301L279 324.9L287 285Z" fill="#337bff" stroke="#337bff"></path><path d="M585 167.4L554 138.6L538 162.4Z" fill="#0056d6" stroke="#0056d6"></path><path d="M399 117.6L376 143.6L388 188.4Z" fill="#337bff" stroke="#337bff"></path><path d="M280 395.7L327 375.7L300 347.9Z" fill="#0056d6" stroke="#0056d6"></path><path d="M554 138.6L480 117.6L538 162.4Z" fill="#538eff" stroke="#538eff"></path><path d="M452 127.6L399 117.6L388 188.4Z" fill="#4385ff" stroke="#4385ff"></path><path d="M359 500.3L413 503.3L390 476.4Z" fill="#4385ff" stroke="#4385ff"></path><path d="M390 476.4L413 503.3L443 488.4Z" fill="#4385ff" stroke="#4385ff"></path><path d="M359 500.3L390 476.4L353 459.4Z" fill="#337bff" stroke="#337bff"></path><path d="M682 199.3L648 220.3L711 257.1Z" fill="#0056d6" stroke="#0056d6"></path><path d="M657 275.1L648 220.3L640 271.1Z" fill="#004cbb" stroke="#004cbb"></path><path d="M585 167.4L598 131.6L554 138.6Z" fill="#0056d6" stroke="#0056d6"></path><path d="M476 504.3L522 508.3L522 484.4Z" fill="#6198ff" stroke="#6198ff"></path><path d="M522 484.4L603 478.4L598 446.6Z" fill="#538eff" stroke="#538eff"></path><path d="M513 549.1L522 508.3L476 504.3Z" fill="#005ce3" stroke="#005ce3"></path><path d="M648 220.3L620 180.4L583 210.3Z" fill="#4385ff" stroke="#4385ff"></path><path d="M413 503.3L435 519.3L443 488.4Z" fill="#0066ff" stroke="#0066ff"></path><path d="M279 324.9L280 395.7L300 347.9Z" fill="#2071ff" stroke="#2071ff"></path><path d="M522 508.3L603 478.4L522 484.4Z" fill="#0066ff" stroke="#0066ff"></path><path d="M674 436.6L690 401.7L618 368.7Z" fill="#004cbb" stroke="#004cbb"></path><path d="M392 88.7L399 117.6L456 72.7Z" fill="#4385ff" stroke="#4385ff"></path><path d="M269 173.4L285 210.3L324 198.3Z" fill="#0056d6" stroke="#0056d6"></path><path d="M285 436.6L333 473.4L312 429.6Z" fill="#538eff" stroke="#538eff"></path><path d="M312 429.6L333 473.4L353 459.4Z" fill="#0051c8" stroke="#0051c8"></path><path d="M413 503.3L417 568.1L435 519.3Z" fill="#005ce3" stroke="#005ce3"></path><path d="M318 152.4L377 173.4L376 143.6Z" fill="#0061f1" stroke="#0061f1"></path><path d="M324 198.3L285 210.3L313 252.1Z" fill="#2071ff" stroke="#2071ff"></path><path d="M218 263.1L224 301L287 285Z" fill="#337bff" stroke="#337bff"></path><path d="M603 478.4L636 456.4L612 441.6Z" fill="#0061f1" stroke="#0061f1"></path><path d="M333 473.4L359 500.3L353 459.4Z" fill="#4385ff" stroke="#4385ff"></path><path d="M690 401.7L692 344.9L637 354.9Z" fill="#2071ff" stroke="#2071ff"></path><path d="M717 282L711 257.1L657 275.1Z" fill="#0066ff" stroke="#0066ff"></path><path d="M612 128.6L598 131.6L620 180.4Z" fill="#004cbb" stroke="#004cbb"></path><path d="M620 180.4L598 131.6L585 167.4Z" fill="#0061f1" stroke="#0061f1"></path><path d="M554 138.6L489 92.7L480 117.6Z" fill="#6198ff" stroke="#6198ff"></path><path d="M539 77.7L489 92.7L554 138.6Z" fill="#005ce3" stroke="#005ce3"></path><path d="M480 117.6L456 72.7L452 127.6Z" fill="#538eff" stroke="#538eff"></path><path d="M280 395.7L285 436.6L312 429.6Z" fill="#2071ff" stroke="#2071ff"></path><path d="M333 473.4L327 512.3L359 500.3Z" fill="#2071ff" stroke="#2071ff"></path><path d="M312 112.6L318 152.4L376 143.6Z" fill="#4385ff" stroke="#4385ff"></path><path d="M660 164.4L612 128.6L620 180.4Z" fill="#337bff" stroke="#337bff"></path><path d="M598 131.6L572 103.7L554 138.6Z" fill="#0061f1" stroke="#0061f1"></path><path d="M616 89.7L572 103.7L598 131.6Z" fill="#337bff" stroke="#337bff"></path><path d="M674 436.6L618 368.7L612 441.6Z" fill="#0061f1" stroke="#0061f1"></path><path d="M636 456.4L674 436.6L612 441.6Z" fill="#0061f1" stroke="#0061f1"></path><path d="M667 457.4L674 436.6L636 456.4Z" fill="#0066ff" stroke="#0066ff"></path><path d="M456 564.1L513 549.1L476 504.3Z" fill="#005ce3" stroke="#005ce3"></path><path d="M522 508.3L598 525.3L603 478.4Z" fill="#0066ff" stroke="#0066ff"></path><path d="M642 503.3L667 457.4L636 456.4Z" fill="#005ce3" stroke="#005ce3"></path><path d="M456 564.1L476 504.3L435 519.3Z" fill="#005ce3" stroke="#005ce3"></path><path d="M711 257.1L648 220.3L657 275.1Z" fill="#0061f1" stroke="#0061f1"></path><path d="M648 220.3L660 164.4L620 180.4Z" fill="#6198ff" stroke="#6198ff"></path><path d="M456 72.7L399 117.6L452 127.6Z" fill="#6198ff" stroke="#6198ff"></path><path d="M399 117.6L378 88.7L376 143.6Z" fill="#538eff" stroke="#538eff"></path><path d="M682 199.3L660 164.4L648 220.3Z" fill="#004cbb" stroke="#004cbb"></path><path d="M642 503.3L636 456.4L603 478.4Z" fill="#004cbb" stroke="#004cbb"></path><path d="M674 436.6L704 423.6L690 401.7Z" fill="#0066ff" stroke="#0066ff"></path><path d="M501 26.9L456 72.7L489 92.7Z" fill="#4385ff" stroke="#4385ff"></path><path d="M489 92.7L456 72.7L480 117.6Z" fill="#005ce3" stroke="#005ce3"></path><path d="M575 543.1L598 525.3L522 508.3Z" fill="#0051c8" stroke="#0051c8"></path><path d="M411 47.9L378 88.7L392 88.7Z" fill="#005ce3" stroke="#005ce3"></path><path d="M392 88.7L378 88.7L399 117.6Z" fill="#004cbb" stroke="#004cbb"></path><path d="M268 474.4L327 512.3L333 473.4Z" fill="#6198ff" stroke="#6198ff"></path><path d="M417 568.1L456 564.1L435 519.3Z" fill="#004cbb" stroke="#004cbb"></path><path d="M717 282L664 312L692 344.9Z" fill="#2071ff" stroke="#2071ff"></path><path d="M717 282L657 275.1L664 312Z" fill="#0061f1" stroke="#0061f1"></path><path d="M579 29.9L539 77.7L572 103.7Z" fill="#4385ff" stroke="#4385ff"></path><path d="M572 103.7L539 77.7L554 138.6Z" fill="#0066ff" stroke="#0066ff"></path><path d="M749 298L717 282L692 344.9Z" fill="#337bff" stroke="#337bff"></path><path d="M318 152.4L269 173.4L324 198.3Z" fill="#538eff" stroke="#538eff"></path><path d="M218 263.1L287 285L288 270.1Z" fill="#005ce3" stroke="#005ce3"></path><path d="M279 324.9L220 325.9L280 395.7Z" fill="#0061f1" stroke="#0061f1"></path><path d="M261 142.6L269 173.4L318 152.4Z" fill="#005ce3" stroke="#005ce3"></path><path d="M218 263.1L288 270.1L228 209.3Z" fill="#0051c8" stroke="#0051c8"></path><path d="M217 456.4L268 474.4L285 436.6Z" fill="#337bff" stroke="#337bff"></path><path d="M351 541.1L413 503.3L359 500.3Z" fill="#2071ff" stroke="#2071ff"></path><path d="M555 562.1L522 508.3L513 549.1Z" fill="#337bff" stroke="#337bff"></path><path d="M555 562.1L575 543.1L522 508.3Z" fill="#005ce3" stroke="#005ce3"></path><path d="M224 301L220 325.9L279 324.9Z" fill="#0061f1" stroke="#0061f1"></path><path d="M285 436.6L268 474.4L333 473.4Z" fill="#004cbb" stroke="#004cbb"></path><path d="M624 538.1L642 503.3L598 525.3Z" fill="#004cbb" stroke="#004cbb"></path><path d="M598 525.3L642 503.3L603 478.4Z" fill="#0061f1" stroke="#0061f1"></path><path d="M716 469.4L704 423.6L674 436.6Z" fill="#005ce3" stroke="#005ce3"></path><path d="M690 401.7L722 397.7L692 344.9Z" fill="#6198ff" stroke="#6198ff"></path><path d="M716 469.4L674 436.6L667 457.4Z" fill="#2071ff" stroke="#2071ff"></path><path d="M711 257.1L701 198.3L682 199.3Z" fill="#0056d6" stroke="#0056d6"></path><path d="M682 199.3L701 198.3L660 164.4Z" fill="#4385ff" stroke="#4385ff"></path><path d="M750 220.3L701 198.3L711 257.1Z" fill="#0061f1" stroke="#0061f1"></path><path d="M327 512.3L351 541.1L359 500.3Z" fill="#0051c8" stroke="#0051c8"></path><path d="M378 88.7L312 112.6L376 143.6Z" fill="#0066ff" stroke="#0066ff"></path><path d="M351 541.1L417 568.1L413 503.3Z" fill="#0051c8" stroke="#0051c8"></path><path d="M219 416.6L285 436.6L280 395.7Z" fill="#0061f1" stroke="#0061f1"></path><path d="M327 512.3L301 552.1L351 541.1Z" fill="#0061f1" stroke="#0061f1"></path><path d="M228 209.3L288 270.1L285 210.3Z" fill="#0051c8" stroke="#0051c8"></path><path d="M167 293L175 342.9L220 325.9Z" fill="#0051c8" stroke="#0051c8"></path><path d="M553 600L555 562.1L513 549.1Z" fill="#0066ff" stroke="#0066ff"></path><path d="M575 543.1L624 538.1L598 525.3Z" fill="#005ce3" stroke="#005ce3"></path><path d="M481 600L513 549.1L456 564.1Z" fill="#538eff" stroke="#538eff"></path><path d="M704 423.6L722 397.7L690 401.7Z" fill="#0061f1" stroke="#0061f1"></path><path d="M220 325.9L223 400.7L280 395.7Z" fill="#0051c8" stroke="#0051c8"></path><path d="M501 26.9L440 50.9L456 72.7Z" fill="#0056d6" stroke="#0056d6"></path><path d="M456 72.7L440 50.9L392 88.7Z" fill="#2071ff" stroke="#2071ff"></path><path d="M378 88.7L299 97.7L312 112.6Z" fill="#6198ff" stroke="#6198ff"></path><path d="M220 153.4L228 209.3L269 173.4Z" fill="#538eff" stroke="#538eff"></path><path d="M269 173.4L228 209.3L285 210.3Z" fill="#0066ff" stroke="#0066ff"></path><path d="M722 397.7L735 358.9L692 344.9Z" fill="#6198ff" stroke="#6198ff"></path><path d="M717 282L751 245.1L711 257.1Z" fill="#0051c8" stroke="#0051c8"></path><path d="M661 109.6L616 89.7L612 128.6Z" fill="#0066ff" stroke="#0066ff"></path><path d="M612 128.6L616 89.7L598 131.6Z" fill="#0056d6" stroke="#0056d6"></path><path d="M539 77.7L526 35.9L489 92.7Z" fill="#4385ff" stroke="#4385ff"></path><path d="M661 109.6L612 128.6L660 164.4Z" fill="#0066ff" stroke="#0066ff"></path><path d="M589 600L624 538.1L575 543.1Z" fill="#6198ff" stroke="#6198ff"></path><path d="M642 503.3L677 499.3L667 457.4Z" fill="#0066ff" stroke="#0066ff"></path><path d="M312 112.6L261 142.6L318 152.4Z" fill="#6198ff" stroke="#6198ff"></path><path d="M193 398.7L219 416.6L223 400.7Z" fill="#337bff" stroke="#337bff"></path><path d="M223 400.7L219 416.6L280 395.7Z" fill="#0051c8" stroke="#0051c8"></path><path d="M193 398.7L223 400.7L220 325.9Z" fill="#538eff" stroke="#538eff"></path><path d="M440 50.9L411 47.9L392 88.7Z" fill="#0066ff" stroke="#0066ff"></path><path d="M312 112.6L276 95.7L261 142.6Z" fill="#4385ff" stroke="#4385ff"></path><path d="M669 556.1L677 499.3L642 503.3Z" fill="#0061f1" stroke="#0061f1"></path><path d="M704 423.6L758 400.7L722 397.7Z" fill="#4385ff" stroke="#4385ff"></path><path d="M735 358.9L749 298L692 344.9Z" fill="#004cbb" stroke="#004cbb"></path><path d="M344 31.9L299 97.7L378 88.7Z" fill="#0066ff" stroke="#0066ff"></path><path d="M721 122.6L661 109.6L660 164.4Z" fill="#4385ff" stroke="#4385ff"></path><path d="M725 176.4L660 164.4L701 198.3Z" fill="#004cbb" stroke="#004cbb"></path><path d="M579 29.9L572 103.7L616 89.7Z" fill="#4385ff" stroke="#4385ff"></path><path d="M579 29.9L526 35.9L539 77.7Z" fill="#337bff" stroke="#337bff"></path><path d="M440 50.9L419 0L411 47.9Z" fill="#004cbb" stroke="#004cbb"></path><path d="M442 600L456 564.1L417 568.1Z" fill="#538eff" stroke="#538eff"></path><path d="M442 600L481 600L456 564.1Z" fill="#0066ff" stroke="#0066ff"></path><path d="M555 562.1L589 600L575 543.1Z" fill="#538eff" stroke="#538eff"></path><path d="M398 600L442 600L417 568.1Z" fill="#0066ff" stroke="#0066ff"></path><path d="M749 298L751 245.1L717 282Z" fill="#004cbb" stroke="#004cbb"></path><path d="M750 220.3L725 176.4L701 198.3Z" fill="#4385ff" stroke="#4385ff"></path><path d="M677 499.3L716 469.4L667 457.4Z" fill="#0051c8" stroke="#0051c8"></path><path d="M758 400.7L765 345.9L735 358.9Z" fill="#0061f1" stroke="#0061f1"></path><path d="M735 358.9L765 345.9L749 298Z" fill="#337bff" stroke="#337bff"></path><path d="M261 142.6L239 144.6L269 173.4Z" fill="#6198ff" stroke="#6198ff"></path><path d="M167 293L224 301L218 263.1Z" fill="#4385ff" stroke="#4385ff"></path><path d="M228 95.7L239 144.6L261 142.6Z" fill="#2071ff" stroke="#2071ff"></path><path d="M526 35.9L501 26.9L489 92.7Z" fill="#337bff" stroke="#337bff"></path><path d="M175 342.9L193 398.7L220 325.9Z" fill="#0061f1" stroke="#0061f1"></path><path d="M219 416.6L217 456.4L285 436.6Z" fill="#4385ff" stroke="#4385ff"></path><path d="M220 325.9L224 301L167 293Z" fill="#538eff" stroke="#538eff"></path><path d="M190 460.4L217 456.4L219 416.6Z" fill="#2071ff" stroke="#2071ff"></path><path d="M268 474.4L269 525.3L327 512.3Z" fill="#0061f1" stroke="#0061f1"></path><path d="M351 541.1L398 600L417 568.1Z" fill="#004cbb" stroke="#004cbb"></path><path d="M226 514.3L269 525.3L268 474.4Z" fill="#0066ff" stroke="#0066ff"></path><path d="M269 525.3L301 552.1L327 512.3Z" fill="#337bff" stroke="#337bff"></path><path d="M751 245.1L750 220.3L711 257.1Z" fill="#538eff" stroke="#538eff"></path><path d="M758 400.7L735 358.9L722 397.7Z" fill="#0056d6" stroke="#0056d6"></path><path d="M749 298L796 306L751 245.1Z" fill="#538eff" stroke="#538eff"></path><path d="M751 245.1L808 247.1L750 220.3Z" fill="#004cbb" stroke="#004cbb"></path><path d="M310 34.9L276 95.7L299 97.7Z" fill="#4385ff" stroke="#4385ff"></path><path d="M299 97.7L276 95.7L312 112.6Z" fill="#538eff" stroke="#538eff"></path><path d="M353 600L398 600L351 541.1Z" fill="#005ce3" stroke="#005ce3"></path><path d="M481 600L553 600L513 549.1Z" fill="#0056d6" stroke="#0056d6"></path><path d="M624 538.1L669 556.1L642 503.3Z" fill="#337bff" stroke="#337bff"></path><path d="M677 499.3L724 521.3L716 469.4Z" fill="#0061f1" stroke="#0061f1"></path><path d="M775 432.6L758 400.7L704 423.6Z" fill="#004cbb" stroke="#004cbb"></path><path d="M174 254.1L218 263.1L182 203.3Z" fill="#2071ff" stroke="#2071ff"></path><path d="M193 139.6L220 153.4L239 144.6Z" fill="#0051c8" stroke="#0051c8"></path><path d="M239 144.6L220 153.4L269 173.4Z" fill="#0051c8" stroke="#0051c8"></path><path d="M640 47.9L579 29.9L616 89.7Z" fill="#0056d6" stroke="#0056d6"></path><path d="M526 35.9L499 0L501 26.9Z" fill="#2071ff" stroke="#2071ff"></path><path d="M182 203.3L218 263.1L228 209.3Z" fill="#0066ff" stroke="#0066ff"></path><path d="M174 254.1L167 293L218 263.1Z" fill="#4385ff" stroke="#4385ff"></path><path d="M193 398.7L181 411.6L219 416.6Z" fill="#0061f1" stroke="#0061f1"></path><path d="M217 456.4L226 514.3L268 474.4Z" fill="#6198ff" stroke="#6198ff"></path><path d="M135 376.7L181 411.6L193 398.7Z" fill="#2071ff" stroke="#2071ff"></path><path d="M135 376.7L193 398.7L175 342.9Z" fill="#538eff" stroke="#538eff"></path><path d="M719 93.7L661 71.7L661 109.6Z" fill="#004cbb" stroke="#004cbb"></path><path d="M661 109.6L661 71.7L616 89.7Z" fill="#337bff" stroke="#337bff"></path><path d="M553 600L589 600L555 562.1Z" fill="#2071ff" stroke="#2071ff"></path><path d="M327 600L353 600L351 541.1Z" fill="#4385ff" stroke="#4385ff"></path><path d="M327 600L351 541.1L301 552.1Z" fill="#6198ff" stroke="#6198ff"></path><path d="M373 0L344 31.9L411 47.9Z" fill="#005ce3" stroke="#005ce3"></path><path d="M411 47.9L344 31.9L378 88.7Z" fill="#0066ff" stroke="#0066ff"></path><path d="M220 153.4L182 203.3L228 209.3Z" fill="#004cbb" stroke="#004cbb"></path><path d="M130 299L146 342.9L167 293Z" fill="#4385ff" stroke="#4385ff"></path><path d="M639 600L669 556.1L624 538.1Z" fill="#0051c8" stroke="#0051c8"></path><path d="M716 469.4L775 432.6L704 423.6Z" fill="#0066ff" stroke="#0066ff"></path><path d="M754 144.6L721 122.6L725 176.4Z" fill="#0066ff" stroke="#0066ff"></path><path d="M725 176.4L721 122.6L660 164.4Z" fill="#337bff" stroke="#337bff"></path><path d="M669 57.9L640 47.9L661 71.7Z" fill="#0056d6" stroke="#0056d6"></path><path d="M661 71.7L640 47.9L616 89.7Z" fill="#4385ff" stroke="#4385ff"></path><path d="M553 0L499 0L526 35.9Z" fill="#0061f1" stroke="#0061f1"></path><path d="M501 26.9L438 0L440 50.9Z" fill="#004cbb" stroke="#004cbb"></path><path d="M553 0L526 35.9L579 29.9Z" fill="#005ce3" stroke="#005ce3"></path><path d="M499 0L438 0L501 26.9Z" fill="#6198ff" stroke="#6198ff"></path><path d="M190 460.4L226 514.3L217 456.4Z" fill="#0056d6" stroke="#0056d6"></path><path d="M269 525.3L257 573.1L301 552.1Z" fill="#005ce3" stroke="#005ce3"></path><path d="M181 411.6L190 460.4L219 416.6Z" fill="#004cbb" stroke="#004cbb"></path><path d="M438 0L419 0L440 50.9Z" fill="#0061f1" stroke="#0061f1"></path><path d="M267 600L327 600L301 552.1Z" fill="#2071ff" stroke="#2071ff"></path><path d="M719 93.7L669 57.9L661 71.7Z" fill="#4385ff" stroke="#4385ff"></path><path d="M344 31.9L310 34.9L299 97.7Z" fill="#4385ff" stroke="#4385ff"></path><path d="M276 95.7L228 95.7L261 142.6Z" fill="#337bff" stroke="#337bff"></path><path d="M220 153.4L172 182.4L182 203.3Z" fill="#0051c8" stroke="#0051c8"></path><path d="M316 0L310 34.9L344 31.9Z" fill="#6198ff" stroke="#6198ff"></path><path d="M816 360.9L796 306L765 345.9Z" fill="#4385ff" stroke="#4385ff"></path><path d="M765 345.9L796 306L749 298Z" fill="#538eff" stroke="#538eff"></path><path d="M768 159.4L754 144.6L725 176.4Z" fill="#005ce3" stroke="#005ce3"></path><path d="M757 478.4L775 432.6L716 469.4Z" fill="#0056d6" stroke="#0056d6"></path><path d="M758 400.7L801 402.7L765 345.9Z" fill="#0056d6" stroke="#0056d6"></path><path d="M567 0L579 29.9L617 0Z" fill="#0056d6" stroke="#0056d6"></path><path d="M567 0L553 0L579 29.9Z" fill="#005ce3" stroke="#005ce3"></path><path d="M669 556.1L724 521.3L677 499.3Z" fill="#2071ff" stroke="#2071ff"></path><path d="M145 256.1L167 293L174 254.1Z" fill="#0061f1" stroke="#0061f1"></path><path d="M167 293L146 342.9L175 342.9Z" fill="#4385ff" stroke="#4385ff"></path><path d="M181 411.6L151 456.4L190 460.4Z" fill="#538eff" stroke="#538eff"></path><path d="M724 521.3L757 478.4L716 469.4Z" fill="#0066ff" stroke="#0066ff"></path><path d="M221 56.9L228 95.7L276 95.7Z" fill="#2071ff" stroke="#2071ff"></path><path d="M193 139.6L172 182.4L220 153.4Z" fill="#337bff" stroke="#337bff"></path><path d="M145 227.3L145 256.1L174 254.1Z" fill="#2071ff" stroke="#2071ff"></path><path d="M617 0L579 29.9L640 47.9Z" fill="#2071ff" stroke="#2071ff"></path><path d="M768 159.4L725 176.4L750 220.3Z" fill="#0056d6" stroke="#0056d6"></path><path d="M721 122.6L719 93.7L661 109.6Z" fill="#4385ff" stroke="#4385ff"></path><path d="M228 95.7L193 139.6L239 144.6Z" fill="#6198ff" stroke="#6198ff"></path><path d="M669 556.1L723 549.1L724 521.3Z" fill="#538eff" stroke="#538eff"></path><path d="M589 600L639 600L624 538.1Z" fill="#538eff" stroke="#538eff"></path><path d="M419 0L373 0L411 47.9Z" fill="#0066ff" stroke="#0066ff"></path><path d="M754 78.7L719 93.7L721 122.6Z" fill="#337bff" stroke="#337bff"></path><path d="M145 227.3L174 254.1L182 203.3Z" fill="#4385ff" stroke="#4385ff"></path><path d="M795 198.3L768 159.4L750 220.3Z" fill="#004cbb" stroke="#004cbb"></path><path d="M754 78.7L717 51.9L719 93.7Z" fill="#0061f1" stroke="#0061f1"></path><path d="M232 569.1L269 525.3L226 514.3Z" fill="#337bff" stroke="#337bff"></path><path d="M232 569.1L257 573.1L269 525.3Z" fill="#0066ff" stroke="#0066ff"></path><path d="M172 182.4L145 227.3L182 203.3Z" fill="#4385ff" stroke="#4385ff"></path><path d="M141 158.4L145 227.3L172 182.4Z" fill="#005ce3" stroke="#005ce3"></path><path d="M822 431.6L801 402.7L775 432.6Z" fill="#005ce3" stroke="#005ce3"></path><path d="M775 432.6L801 402.7L758 400.7Z" fill="#4385ff" stroke="#4385ff"></path><path d="M838 315L808 247.1L796 306Z" fill="#0051c8" stroke="#0051c8"></path><path d="M796 306L808 247.1L751 245.1Z" fill="#005ce3" stroke="#005ce3"></path><path d="M98 314L130 299L87 249.1Z" fill="#0061f1" stroke="#0061f1"></path><path d="M145 256.1L130 299L167 293Z" fill="#0051c8" stroke="#0051c8"></path><path d="M79 348.9L135 376.7L146 342.9Z" fill="#538eff" stroke="#538eff"></path><path d="M146 342.9L135 376.7L175 342.9Z" fill="#337bff" stroke="#337bff"></path><path d="M172 524.3L232 569.1L226 514.3Z" fill="#004cbb" stroke="#004cbb"></path><path d="M690 600L723 549.1L669 556.1Z" fill="#004cbb" stroke="#004cbb"></path><path d="M724 521.3L768 511.3L757 478.4Z" fill="#0066ff" stroke="#0066ff"></path><path d="M825 487.4L822 431.6L775 432.6Z" fill="#2071ff" stroke="#2071ff"></path><path d="M808 247.1L795 198.3L750 220.3Z" fill="#538eff" stroke="#538eff"></path><path d="M659 0L617 0L640 47.9Z" fill="#337bff" stroke="#337bff"></path><path d="M659 0L640 47.9L669 57.9Z" fill="#005ce3" stroke="#005ce3"></path><path d="M801 402.7L816 360.9L765 345.9Z" fill="#004cbb" stroke="#004cbb"></path><path d="M310 34.9L278 27.9L276 95.7Z" fill="#004cbb" stroke="#004cbb"></path><path d="M228 95.7L190 85.7L193 139.6Z" fill="#0061f1" stroke="#0061f1"></path><path d="M316 0L278 27.9L310 34.9Z" fill="#0051c8" stroke="#0051c8"></path><path d="M172 524.3L226 514.3L190 460.4Z" fill="#538eff" stroke="#538eff"></path><path d="M257 573.1L267 600L301 552.1Z" fill="#005ce3" stroke="#005ce3"></path><path d="M121 410.6L151 456.4L181 411.6Z" fill="#004cbb" stroke="#004cbb"></path><path d="M223 600L267 600L257 573.1Z" fill="#0061f1" stroke="#0061f1"></path><path d="M373 0L316 0L344 31.9Z" fill="#0066ff" stroke="#0066ff"></path><path d="M723 549.1L768 511.3L724 521.3Z" fill="#0061f1" stroke="#0061f1"></path><path d="M850 387.7L836 329.9L816 360.9Z" fill="#0066ff" stroke="#0066ff"></path><path d="M639 600L690 600L669 556.1Z" fill="#0056d6" stroke="#0056d6"></path><path d="M723 549.1L779 549.1L768 511.3Z" fill="#0066ff" stroke="#0066ff"></path><path d="M754 78.7L721 122.6L754 144.6Z" fill="#2071ff" stroke="#2071ff"></path><path d="M719 93.7L717 51.9L669 57.9Z" fill="#0061f1" stroke="#0061f1"></path><path d="M754 78.7L754 144.6L807 80.7Z" fill="#005ce3" stroke="#005ce3"></path><path d="M234 0L221 56.9L278 27.9Z" fill="#0051c8" stroke="#0051c8"></path><path d="M278 27.9L221 56.9L276 95.7Z" fill="#337bff" stroke="#337bff"></path><path d="M193 139.6L141 158.4L172 182.4Z" fill="#0061f1" stroke="#0061f1"></path><path d="M221 56.9L190 85.7L228 95.7Z" fill="#2071ff" stroke="#2071ff"></path><path d="M850 387.7L816 360.9L801 402.7Z" fill="#005ce3" stroke="#005ce3"></path><path d="M816 360.9L836 329.9L796 306Z" fill="#6198ff" stroke="#6198ff"></path><path d="M808 247.1L821 188.4L795 198.3Z" fill="#2071ff" stroke="#2071ff"></path><path d="M99 399.7L121 410.6L135 376.7Z" fill="#2071ff" stroke="#2071ff"></path><path d="M135 376.7L121 410.6L181 411.6Z" fill="#337bff" stroke="#337bff"></path><path d="M836 329.9L838 315L796 306Z" fill="#337bff" stroke="#337bff"></path><path d="M717 51.9L659 0L669 57.9Z" fill="#337bff" stroke="#337bff"></path><path d="M169 559.1L172 524.3L119 541.1Z" fill="#6198ff" stroke="#6198ff"></path><path d="M151 456.4L172 524.3L190 460.4Z" fill="#0056d6" stroke="#0056d6"></path><path d="M232 569.1L223 600L257 573.1Z" fill="#0061f1" stroke="#0061f1"></path><path d="M149 120.6L141 158.4L193 139.6Z" fill="#0056d6" stroke="#0056d6"></path><path d="M87 249.1L130 299L145 256.1Z" fill="#337bff" stroke="#337bff"></path><path d="M130 299L98 314L146 342.9Z" fill="#0051c8" stroke="#0051c8"></path><path d="M823 138.6L754 144.6L768 159.4Z" fill="#538eff" stroke="#538eff"></path><path d="M717 51.9L736 0L659 0Z" fill="#6198ff" stroke="#6198ff"></path><path d="M821 188.4L768 159.4L795 198.3Z" fill="#004cbb" stroke="#004cbb"></path><path d="M825 487.4L775 432.6L757 478.4Z" fill="#0056d6" stroke="#0056d6"></path><path d="M849 239.1L821 188.4L808 247.1Z" fill="#005ce3" stroke="#005ce3"></path><path d="M87 249.1L145 256.1L145 227.3Z" fill="#4385ff" stroke="#4385ff"></path><path d="M690 600L716 600L723 549.1Z" fill="#0061f1" stroke="#0061f1"></path><path d="M768 511.3L825 487.4L757 478.4Z" fill="#337bff" stroke="#337bff"></path><path d="M221 56.9L188 46.9L190 85.7Z" fill="#005ce3" stroke="#005ce3"></path><path d="M316 0L267 0L278 27.9Z" fill="#0066ff" stroke="#0066ff"></path><path d="M190 85.7L149 120.6L193 139.6Z" fill="#0056d6" stroke="#0056d6"></path><path d="M81 224.3L87 249.1L145 227.3Z" fill="#0061f1" stroke="#0061f1"></path><path d="M102 100.7L149 120.6L119 66.7Z" fill="#0066ff" stroke="#0066ff"></path><path d="M169 559.1L223 600L232 569.1Z" fill="#0056d6" stroke="#0056d6"></path><path d="M79 348.9L99 399.7L135 376.7Z" fill="#005ce3" stroke="#005ce3"></path><path d="M97 485.4L133 510.3L151 456.4Z" fill="#337bff" stroke="#337bff"></path><path d="M860 226.3L849 239.1L900 257.1Z" fill="#6198ff" stroke="#6198ff"></path><path d="M838 315L849 239.1L808 247.1Z" fill="#0061f1" stroke="#0061f1"></path><path d="M900 317L838 315L836 329.9Z" fill="#0066ff" stroke="#0066ff"></path><path d="M852 431.6L850 387.7L822 431.6Z" fill="#0066ff" stroke="#0066ff"></path><path d="M822 431.6L850 387.7L801 402.7Z" fill="#6198ff" stroke="#6198ff"></path><path d="M766 600L779 549.1L723 549.1Z" fill="#0051c8" stroke="#0051c8"></path><path d="M172 524.3L169 559.1L232 569.1Z" fill="#005ce3" stroke="#005ce3"></path><path d="M133 510.3L172 524.3L151 456.4Z" fill="#0061f1" stroke="#0061f1"></path><path d="M234 0L188 46.9L221 56.9Z" fill="#0056d6" stroke="#0056d6"></path><path d="M81 224.3L145 227.3L89 177.4Z" fill="#538eff" stroke="#538eff"></path><path d="M98 314L79 348.9L146 342.9Z" fill="#005ce3" stroke="#005ce3"></path><path d="M97 485.4L151 456.4L121 410.6Z" fill="#6198ff" stroke="#6198ff"></path><path d="M839 166.4L823 138.6L821 188.4Z" fill="#0056d6" stroke="#0056d6"></path><path d="M821 188.4L823 138.6L768 159.4Z" fill="#4385ff" stroke="#4385ff"></path><path d="M820 511.3L825 487.4L768 511.3Z" fill="#6198ff" stroke="#6198ff"></path><path d="M49 317L79 348.9L98 314Z" fill="#0066ff" stroke="#0066ff"></path><path d="M99 399.7L81 414.6L121 410.6Z" fill="#0056d6" stroke="#0056d6"></path><path d="M267 0L234 0L278 27.9Z" fill="#538eff" stroke="#538eff"></path><path d="M860 226.3L839 166.4L821 188.4Z" fill="#0056d6" stroke="#0056d6"></path><path d="M825 487.4L852 431.6L822 431.6Z" fill="#0051c8" stroke="#0051c8"></path><path d="M900 257.1L849 239.1L838 315Z" fill="#538eff" stroke="#538eff"></path><path d="M900 317L836 329.9L900 353.9Z" fill="#337bff" stroke="#337bff"></path><path d="M849 239.1L860 226.3L821 188.4Z" fill="#004cbb" stroke="#004cbb"></path><path d="M825 487.4L873 487.4L852 431.6Z" fill="#0056d6" stroke="#0056d6"></path><path d="M779 549.1L820 511.3L768 511.3Z" fill="#6198ff" stroke="#6198ff"></path><path d="M89 177.4L145 227.3L141 158.4Z" fill="#538eff" stroke="#538eff"></path><path d="M87 249.1L59 267.1L98 314Z" fill="#538eff" stroke="#538eff"></path><path d="M89 177.4L141 158.4L94 122.6Z" fill="#6198ff" stroke="#6198ff"></path><path d="M807 80.7L774 46.9L754 78.7Z" fill="#005ce3" stroke="#005ce3"></path><path d="M754 78.7L774 46.9L717 51.9Z" fill="#004cbb" stroke="#004cbb"></path><path d="M807 80.7L754 144.6L823 138.6Z" fill="#0056d6" stroke="#0056d6"></path><path d="M61 412.6L81 414.6L99 399.7Z" fill="#0066ff" stroke="#0066ff"></path><path d="M94 122.6L141 158.4L149 120.6Z" fill="#4385ff" stroke="#4385ff"></path><path d="M819 57.9L807 80.7L867 75.7Z" fill="#538eff" stroke="#538eff"></path><path d="M716 600L766 600L723 549.1Z" fill="#6198ff" stroke="#6198ff"></path><path d="M865 539.1L839 508.3L820 511.3Z" fill="#0066ff" stroke="#0066ff"></path><path d="M781 0L736 0L774 46.9Z" fill="#0051c8" stroke="#0051c8"></path><path d="M774 46.9L736 0L717 51.9Z" fill="#6198ff" stroke="#6198ff"></path><path d="M81 414.6L97 485.4L121 410.6Z" fill="#0061f1" stroke="#0061f1"></path><path d="M133 510.3L119 541.1L172 524.3Z" fill="#4385ff" stroke="#4385ff"></path><path d="M813 575.1L820 511.3L779 549.1Z" fill="#4385ff" stroke="#4385ff"></path><path d="M820 511.3L839 508.3L825 487.4Z" fill="#0061f1" stroke="#0061f1"></path><path d="M47 196.3L59 267.1L81 224.3Z" fill="#2071ff" stroke="#2071ff"></path><path d="M81 224.3L59 267.1L87 249.1Z" fill="#0056d6" stroke="#0056d6"></path><path d="M51 366.7L61 412.6L99 399.7Z" fill="#0056d6" stroke="#0056d6"></path><path d="M90 513.3L119 541.1L133 510.3Z" fill="#005ce3" stroke="#005ce3"></path><path d="M169 559.1L164 600L223 600Z" fill="#0061f1" stroke="#0061f1"></path><path d="M118 600L164 600L169 559.1Z" fill="#4385ff" stroke="#4385ff"></path><path d="M51 366.7L99 399.7L79 348.9Z" fill="#0061f1" stroke="#0061f1"></path><path d="M81 414.6L31 467.4L97 485.4Z" fill="#337bff" stroke="#337bff"></path><path d="M97 485.4L90 513.3L133 510.3Z" fill="#005ce3" stroke="#005ce3"></path><path d="M59 267.1L49 317L98 314Z" fill="#0056d6" stroke="#0056d6"></path><path d="M102 100.7L94 122.6L149 120.6Z" fill="#005ce3" stroke="#005ce3"></path><path d="M89 177.4L47 196.3L81 224.3Z" fill="#538eff" stroke="#538eff"></path><path d="M149 120.6L190 85.7L119 66.7Z" fill="#538eff" stroke="#538eff"></path><path d="M49 317L51 366.7L79 348.9Z" fill="#0066ff" stroke="#0066ff"></path><path d="M900 353.9L850 387.7L900 378.7Z" fill="#004cbb" stroke="#004cbb"></path><path d="M900 353.9L836 329.9L850 387.7Z" fill="#0051c8" stroke="#0051c8"></path><path d="M860 226.3L900 170.4L839 166.4Z" fill="#004cbb" stroke="#004cbb"></path><path d="M872 115.6L807 80.7L823 138.6Z" fill="#4385ff" stroke="#4385ff"></path><path d="M119 66.7L190 85.7L188 46.9Z" fill="#005ce3" stroke="#005ce3"></path><path d="M766 600L813 575.1L779 549.1Z" fill="#538eff" stroke="#538eff"></path><path d="M900 378.7L850 387.7L900 422.6Z" fill="#538eff" stroke="#538eff"></path><path d="M850 387.7L852 431.6L900 422.6Z" fill="#004cbb" stroke="#004cbb"></path><path d="M47 524.3L90 513.3L97 485.4Z" fill="#0056d6" stroke="#0056d6"></path><path d="M119 541.1L118 600L169 559.1Z" fill="#4385ff" stroke="#4385ff"></path><path d="M900 317L900 257.1L838 315Z" fill="#004cbb" stroke="#004cbb"></path><path d="M872 115.6L823 138.6L839 166.4Z" fill="#6198ff" stroke="#6198ff"></path><path d="M807 80.7L819 57.9L774 46.9Z" fill="#337bff" stroke="#337bff"></path><path d="M123 44.9L119 66.7L188 46.9Z" fill="#2071ff" stroke="#2071ff"></path><path d="M873 487.4L825 487.4L839 508.3Z" fill="#0066ff" stroke="#0066ff"></path><path d="M865 539.1L873 487.4L839 508.3Z" fill="#0051c8" stroke="#0051c8"></path><path d="M900 257.1L900 216.3L860 226.3Z" fill="#0051c8" stroke="#0051c8"></path><path d="M234 0L164 0L188 46.9Z" fill="#0066ff" stroke="#0066ff"></path><path d="M791 0L781 0L774 46.9Z" fill="#0061f1" stroke="#0061f1"></path><path d="M900 468.4L900 422.6L852 431.6Z" fill="#0056d6" stroke="#0056d6"></path><path d="M164 0L123 44.9L188 46.9Z" fill="#2071ff" stroke="#2071ff"></path><path d="M119 66.7L56 83.7L102 100.7Z" fill="#005ce3" stroke="#005ce3"></path><path d="M31 173.4L47 196.3L89 177.4Z" fill="#4385ff" stroke="#4385ff"></path><path d="M0 311L27 340.9L49 317Z" fill="#337bff" stroke="#337bff"></path><path d="M31 173.4L89 177.4L52 112.6Z" fill="#005ce3" stroke="#005ce3"></path><path d="M89 177.4L94 122.6L52 112.6Z" fill="#6198ff" stroke="#6198ff"></path><path d="M51 366.7L0 399.7L61 412.6Z" fill="#0051c8" stroke="#0051c8"></path><path d="M47 524.3L81 539.1L90 513.3Z" fill="#538eff" stroke="#538eff"></path><path d="M49 317L27 340.9L51 366.7Z" fill="#004cbb" stroke="#004cbb"></path><path d="M0 311L49 317L59 267.1Z" fill="#005ce3" stroke="#005ce3"></path><path d="M766 600L816 600L813 575.1Z" fill="#6198ff" stroke="#6198ff"></path><path d="M813 575.1L865 539.1L820 511.3Z" fill="#538eff" stroke="#538eff"></path><path d="M900 138.6L872 115.6L839 166.4Z" fill="#337bff" stroke="#337bff"></path><path d="M819 57.9L791 0L774 46.9Z" fill="#337bff" stroke="#337bff"></path><path d="M856 26.9L791 0L819 57.9Z" fill="#0056d6" stroke="#0056d6"></path><path d="M31 467.4L81 414.6L61 412.6Z" fill="#2071ff" stroke="#2071ff"></path><path d="M90 513.3L81 539.1L119 541.1Z" fill="#004cbb" stroke="#004cbb"></path><path d="M900 216.3L900 170.4L860 226.3Z" fill="#0051c8" stroke="#0051c8"></path><path d="M861 600L865 539.1L813 575.1Z" fill="#0066ff" stroke="#0066ff"></path><path d="M873 487.4L900 468.4L852 431.6Z" fill="#4385ff" stroke="#4385ff"></path><path d="M164 0L147 0L123 44.9Z" fill="#0061f1" stroke="#0061f1"></path><path d="M900 517.3L900 468.4L873 487.4Z" fill="#0061f1" stroke="#0061f1"></path><path d="M81 539.1L118 600L119 541.1Z" fill="#337bff" stroke="#337bff"></path><path d="M147 0L106 39.9L123 44.9Z" fill="#2071ff" stroke="#2071ff"></path><path d="M123 44.9L106 39.9L119 66.7Z" fill="#0056d6" stroke="#0056d6"></path><path d="M900 83.7L867 75.7L872 115.6Z" fill="#6198ff" stroke="#6198ff"></path><path d="M872 115.6L867 75.7L807 80.7Z" fill="#0051c8" stroke="#0051c8"></path><path d="M900 170.4L900 138.6L839 166.4Z" fill="#337bff" stroke="#337bff"></path><path d="M52 112.6L94 122.6L102 100.7Z" fill="#004cbb" stroke="#004cbb"></path><path d="M0 251.1L0 311L59 267.1Z" fill="#004cbb" stroke="#004cbb"></path><path d="M56 83.7L52 112.6L102 100.7Z" fill="#0061f1" stroke="#0061f1"></path><path d="M0 435.6L31 467.4L61 412.6Z" fill="#0056d6" stroke="#0056d6"></path><path d="M81 539.1L76 600L118 600Z" fill="#0051c8" stroke="#0051c8"></path><path d="M0 251.1L59 267.1L0 220.3Z" fill="#005ce3" stroke="#005ce3"></path><path d="M27 340.9L0 350.9L51 366.7Z" fill="#0051c8" stroke="#0051c8"></path><path d="M900 564.1L900 517.3L865 539.1Z" fill="#337bff" stroke="#337bff"></path><path d="M865 539.1L900 517.3L873 487.4Z" fill="#2071ff" stroke="#2071ff"></path><path d="M0 311L0 350.9L27 340.9Z" fill="#0056d6" stroke="#0056d6"></path><path d="M31 467.4L47 524.3L97 485.4Z" fill="#0061f1" stroke="#0061f1"></path><path d="M0 158.4L0 220.3L31 173.4Z" fill="#0056d6" stroke="#0056d6"></path><path d="M106 39.9L56 83.7L119 66.7Z" fill="#2071ff" stroke="#2071ff"></path><path d="M53 31.9L56 83.7L106 39.9Z" fill="#004cbb" stroke="#004cbb"></path><path d="M0 220.3L59 267.1L47 196.3Z" fill="#0061f1" stroke="#0061f1"></path><path d="M0 220.3L47 196.3L31 173.4Z" fill="#538eff" stroke="#538eff"></path><path d="M900 51.9L856 26.9L867 75.7Z" fill="#004cbb" stroke="#004cbb"></path><path d="M867 75.7L856 26.9L819 57.9Z" fill="#0061f1" stroke="#0061f1"></path><path d="M0 350.9L0 399.7L51 366.7Z" fill="#538eff" stroke="#538eff"></path><path d="M31 467.4L0 519.3L47 524.3Z" fill="#004cbb" stroke="#004cbb"></path><path d="M0 158.4L31 173.4L52 112.6Z" fill="#2071ff" stroke="#2071ff"></path><path d="M816 600L861 600L813 575.1Z" fill="#0066ff" stroke="#0066ff"></path><path d="M900 138.6L900 83.7L872 115.6Z" fill="#538eff" stroke="#538eff"></path><path d="M0 399.7L0 435.6L61 412.6Z" fill="#6198ff" stroke="#6198ff"></path><path d="M56 600L81 539.1L32 574.1Z" fill="#4385ff" stroke="#4385ff"></path><path d="M56 600L76 600L81 539.1Z" fill="#0051c8" stroke="#0051c8"></path><path d="M861 600L900 564.1L865 539.1Z" fill="#337bff" stroke="#337bff"></path><path d="M0 109.6L0 158.4L52 112.6Z" fill="#2071ff" stroke="#2071ff"></path><path d="M0 435.6L0 479.4L31 467.4Z" fill="#4385ff" stroke="#4385ff"></path><path d="M900 83.7L900 51.9L867 75.7Z" fill="#6198ff" stroke="#6198ff"></path><path d="M32 574.1L81 539.1L47 524.3Z" fill="#337bff" stroke="#337bff"></path><path d="M72 0L53 31.9L106 39.9Z" fill="#0066ff" stroke="#0066ff"></path><path d="M56 83.7L0 109.6L52 112.6Z" fill="#337bff" stroke="#337bff"></path><path d="M900 0L871 0L856 26.9Z" fill="#0056d6" stroke="#0056d6"></path><path d="M856 26.9L871 0L791 0Z" fill="#6198ff" stroke="#6198ff"></path><path d="M147 0L72 0L106 39.9Z" fill="#005ce3" stroke="#005ce3"></path><path d="M0 545.1L32 574.1L47 524.3Z" fill="#538eff" stroke="#538eff"></path><path d="M861 600L900 600L900 564.1Z" fill="#4385ff" stroke="#4385ff"></path><path d="M0 479.4L0 519.3L31 467.4Z" fill="#6198ff" stroke="#6198ff"></path><path d="M0 73.7L56 83.7L53 31.9Z" fill="#0051c8" stroke="#0051c8"></path><path d="M0 73.7L0 109.6L56 83.7Z" fill="#0061f1" stroke="#0061f1"></path><path d="M0 519.3L0 545.1L47 524.3Z" fill="#0056d6" stroke="#0056d6"></path><path d="M32 574.1L0 600L56 600Z" fill="#337bff" stroke="#337bff"></path><path d="M0 37.9L0 73.7L53 31.9Z" fill="#0051c8" stroke="#0051c8"></path><path d="M900 51.9L900 0L856 26.9Z" fill="#538eff" stroke="#538eff"></path><path d="M72 0L34 0L53 31.9Z" fill="#4385ff" stroke="#4385ff"></path><path d="M34 0L0 37.9L53 31.9Z" fill="#538eff" stroke="#538eff"></path><path d="M0 545.1L0 600L32 574.1Z" fill="#538eff" stroke="#538eff"></path><path d="M34 0L0 0L0 37.9Z" fill="#005ce3" stroke="#005ce3"></path></g></svg>