<svg id="visual" viewBox="0 0 1500 30" width="1500" height="30" xmlns="http://www.w3.org/2000/svg" xmlns:xlink="http://www.w3.org/1999/xlink" version="1.1"><path d="M0 12L8 12.7C16 13.3 32 14.7 48.2 16.3C64.3 18 80.7 20 96.8 18.2C113 16.3 129 10.7 145.2 7.2C161.3 3.7 177.7 2.3 193.8 2.3C210 2.3 226 3.7 242 8.3C258 13 274 21 290.2 20.8C306.3 20.7 322.7 12.3 338.8 12.3C355 12.3 371 20.7 387 20.8C403 21 419 13 435.2 9.5C451.3 6 467.7 7 483.8 6.7C500 6.3 516 4.7 532.2 6C548.3 7.3 564.7 11.7 580.8 12.2C597 12.7 613 9.3 629 8.5C645 7.7 661 9.3 677.2 9.3C693.3 9.3 709.7 7.7 725.8 7.8C742 8 758 10 774.2 12C790.3 14 806.7 16 822.8 15.3C839 14.7 855 11.3 871 11.8C887 12.3 903 16.7 919.2 18.8C935.3 21 951.7 21 967.8 17.5C984 14 1000 7 1016.2 5.3C1032.3 3.7 1048.7 7.3 1064.8 11C1081 14.7 1097 18.3 1113 17.5C1129 16.7 1145 11.3 1161.2 9.7C1177.3 8 1193.7 10 1209.8 13.2C1226 16.3 1242 20.7 1258 21.7C1274 22.7 1290 20.3 1306.2 18C1322.3 15.7 1338.7 13.3 1354.8 11.2C1371 9 1387 7 1403.2 9.2C1419.3 11.3 1435.7 17.7 1451.8 20C1468 22.3 1484 20.7 1492 19.8L1500 19L1500 0L1492 0C1484 0 1468 0 1451.8 0C1435.7 0 1419.3 0 1403.2 0C1387 0 1371 0 1354.8 0C1338.7 0 1322.3 0 1306.2 0C1290 0 1274 0 1258 0C1242 0 1226 0 1209.8 0C1193.7 0 1177.3 0 1161.2 0C1145 0 1129 0 1113 0C1097 0 1081 0 1064.8 0C1048.7 0 1032.3 0 1016.2 0C1000 0 984 0 967.8 0C951.7 0 935.3 0 919.2 0C903 0 887 0 871 0C855 0 839 0 822.8 0C806.7 0 790.3 0 774.2 0C758 0 742 0 725.8 0C709.7 0 693.3 0 677.2 0C661 0 645 0 629 0C613 0 597 0 580.8 0C564.7 0 548.3 0 532.2 0C516 0 500 0 483.8 0C467.7 0 451.3 0 435.2 0C419 0 403 0 387 0C371 0 355 0 338.8 0C322.7 0 306.3 0 290.2 0C274 0 258 0 242 0C226 0 210 0 193.8 0C177.7 0 161.3 0 145.2 0C129 0 113 0 96.8 0C80.7 0 64.3 0 48.2 0C32 0 16 0 8 0L0 0Z" fill="#0066FF" stroke-linecap="round" stroke-linejoin="miter"></path></svg>