<svg id="visual" viewBox="0 0 900 600" width="900" height="600" xmlns="http://www.w3.org/2000/svg" xmlns:xlink="http://www.w3.org/1999/xlink" version="1.1"><path d="M0 7L75 13C150 19 300 31 450 37C600 43 750 43 825 43L900 43L900 0L825 0C750 0 600 0 450 0C300 0 150 0 75 0L0 0Z" fill="#36b796"></path><path d="M0 229L75 216C150 203 300 177 450 156C600 135 750 119 825 111L900 103L900 41L825 41C750 41 600 41 450 35C300 29 150 17 75 11L0 5Z" fill="#0f9a79"></path><path d="M0 325L75 339C150 353 300 381 450 380C600 379 750 349 825 334L900 319L900 101L825 109C750 117 600 133 450 154C300 175 150 201 75 214L0 227Z" fill="#00795f"></path><path d="M0 439L75 451C150 463 300 487 450 468C600 449 750 387 825 356L900 325L900 317L825 332C750 347 600 377 450 378C300 379 150 351 75 337L0 323Z" fill="#006c55"></path><path d="M0 499L75 504C150 509 300 519 450 504C600 489 750 449 825 429L900 409L900 323L825 354C750 385 600 447 450 466C300 485 150 461 75 449L0 437Z" fill="#00795f"></path><path d="M0 583L75 585C150 587 300 591 450 581C600 571 750 547 825 535L900 523L900 407L825 427C750 447 600 487 450 502C300 517 150 507 75 502L0 497Z" fill="#0f9a79"></path><path d="M0 601L75 601C150 601 300 601 450 601C600 601 750 601 825 601L900 601L900 521L825 533C750 545 600 569 450 579C300 589 150 585 75 583L0 581Z" fill="#36b796"></path></svg>