<svg id="visual" viewBox="0 0 1500 30" width="1500" height="30" xmlns="http://www.w3.org/2000/svg" xmlns:xlink="http://www.w3.org/1999/xlink" version="1.1"><path d="M0 9L35.7 10.8C71.3 12.7 142.7 16.3 214.2 17.2C285.7 18 357.3 16 428.8 14.7C500.3 13.3 571.7 12.7 643 10.8C714.3 9 785.7 6 857 4.7C928.3 3.3 999.7 3.7 1071.2 3.8C1142.7 4 1214.3 4 1285.8 6.7C1357.3 9.3 1428.7 14.7 1464.3 17.3L1500 20L1500 0L1464.3 0C1428.7 0 1357.3 0 1285.8 0C1214.3 0 1142.7 0 1071.2 0C999.7 0 928.3 0 857 0C785.7 0 714.3 0 643 0C571.7 0 500.3 0 428.8 0C357.3 0 285.7 0 214.2 0C142.7 0 71.3 0 35.7 0L0 0Z" fill="#2e7ff9"></path></svg>